<?xml version="1.0" encoding="UTF-8"?>
<svg id="Calque_2" data-name="Calque 2" xmlns="http://www.w3.org/2000/svg" viewBox="0 0 68.34 68.34">
  <defs>
    <style>
      .cls-1 {
        fill: #036;
      }

      .cls-2 {
        fill: #f63;
        fill-rule: evenodd;
      }
    </style>
  </defs>
  <g id="Contenue">
    <path class="cls-1" d="M10.68,0h46.98c5.9,0,10.68,4.78,10.68,10.68v46.98c0,5.9-4.78,10.68-10.68,10.68H10.68c-5.9,0-10.68-4.78-10.68-10.68V10.68C0,4.78,4.78,0,10.68,0"/>
    <g>
      <path class="cls-2" d="M23.21,53.36v-25.9h-8.61v25.9h8.61ZM18.9,23.93c3,0,4.87-1.99,4.87-4.48-.06-2.54-1.87-4.47-4.81-4.47s-4.87,1.93-4.87,4.47,1.87,4.48,4.76,4.48h.05Z"/>
      <path class="cls-2" d="M27.97,53.36h8.61v-14.46c0-.77.05-1.55.28-2.1.62-1.55,2.03-3.15,4.42-3.15,3.12,0,4.36,2.37,4.36,5.86v13.85h8.61v-14.85c0-7.95-4.25-11.66-9.91-11.66-4.65,0-6.68,2.59-7.82,4.36h.06v-3.76h-8.61c.11,2.43,0,25.9,0,25.9h0Z"/>
    </g>
  </g>
</svg>