<?xml version="1.0" encoding="UTF-8"?>
<svg id="Calque_2" data-name="Calque 2" xmlns="http://www.w3.org/2000/svg" viewBox="0 0 68.34 68.34">
  <defs>
    <style>
      .cls-1 {
        fill: #036;
      }

      .cls-2 {
        fill: #f63;
      }
    </style>
  </defs>
  <g id="Contenue">
    <path class="cls-1" d="M10.68,0h46.98c5.9,0,10.68,4.78,10.68,10.68v46.98c0,5.9-4.78,10.68-10.68,10.68H10.68c-5.9,0-10.68-4.78-10.68-10.68V10.68C0,4.78,4.78,0,10.68,0"/>
    <g>
      <path class="cls-2" d="M43.64,11.76h-18.95c-7.14,0-12.94,5.79-12.94,12.93v18.95c0,7.15,5.79,12.93,12.94,12.93h18.95c7.14,0,12.94-5.79,12.94-12.93v-18.95c0-7.15-5.79-12.93-12.94-12.93M52.45,43.97c0,4.74-3.84,8.59-8.59,8.59h-19.39c-4.74,0-8.59-3.84-8.59-8.59v-19.39c0-4.74,3.84-8.59,8.59-8.59h19.39c4.74,0,8.59,3.84,8.59,8.59v19.39Z"/>
      <path class="cls-2" d="M34.17,22.65c-6.42,0-11.63,5.21-11.63,11.63s5.21,11.63,11.63,11.63,11.63-5.21,11.63-11.63-5.21-11.63-11.63-11.63M34.17,41.82c-4.16,0-7.54-3.38-7.54-7.54s3.37-7.54,7.54-7.54,7.54,3.37,7.54,7.54-3.38,7.54-7.54,7.54"/>
      <path class="cls-2" d="M46.19,19.5c-1.5,0-2.71,1.21-2.71,2.71s1.21,2.71,2.71,2.71,2.71-1.21,2.71-2.71-1.21-2.71-2.71-2.71"/>
    </g>
  </g>
</svg>