<?xml version="1.0" encoding="UTF-8"?>
<svg xmlns="http://www.w3.org/2000/svg" viewBox="0 0 900 769">
  <defs>
    <style>
      .cls-1 {
        fill: #036;
      }

      .cls-2 {
        stroke: #a5c3fb;
        stroke-width: 6.53px;
      }

      .cls-2, .cls-3 {
        stroke-linejoin: round;
      }

      .cls-2, .cls-3, .cls-4, .cls-5 {
        fill: none;
        stroke-linecap: round;
      }

      .cls-6 {
        font-family: ShantellSansInformalBouncy-Medium, 'Shantell Sans Informal Bouncy';
        font-size: 64.09px;
        font-weight: 500;
      }

      .cls-6, .cls-7 {
        fill: #f63;
      }

      .cls-3 {
        stroke: #f63;
        stroke-width: 12.63px;
      }

      .cls-8 {
        letter-spacing: 0em;
      }

      .cls-9 {
        letter-spacing: -.02em;
      }

      .cls-10 {
        letter-spacing: -.02em;
      }

      .cls-11 {
        letter-spacing: -.02em;
      }

      .cls-12 {
        fill: #92bcff;
      }

      .cls-4 {
        stroke-width: 6.64px;
      }

      .cls-4, .cls-5 {
        stroke: #fffce9;
        stroke-miterlimit: 10;
      }

      .cls-5 {
        stroke-width: 9.02px;
      }

      .cls-13 {
        fill: #fffce9;
      }

      .cls-14 {
        fill: #36c;
      }
    </style>
  </defs>
  <g id="Calque_7" data-name="Calque 7">
    <rect class="cls-1" x="-91.4" y="-119.93" width="1102.22" height="1102.22"/>
    <path class="cls-7" d="M710.2,322.8l-191.02,2.6c-9.63.13-16.35-9.51-12.88-18.5l56.71-91.21c2.69-4.33,2.61-9.84-.22-14.08l-59.03-88.54c-3.74-8.9,2.71-18.76,12.36-18.89l190.87-2.59c9.64-.13,16.36,9.53,12.87,18.53l-55.91,90.12c-2.66,4.29-2.6,9.73.15,13.96l58.49,89.79c3.69,8.89-2.76,18.69-12.39,18.82Z"/>
    <path class="cls-13" d="M825.33,521.03l-72.7-41.97c-7.89-4.56-17.76,1.14-17.76,10.25v83.95c0,9.11,9.87,14.81,17.76,10.25l72.7-41.97c7.89-4.56,7.89-15.95,0-20.51Z"/>
    <g>
      <path class="cls-13" d="M556.21,522.62l-72.7-41.97c-7.89-4.56-17.76,1.14-17.76,10.25v83.95c0,9.11,9.87,14.81,17.76,10.25l72.7-41.97c7.89-4.56,7.89-15.95,0-20.51Z"/>
      <rect class="cls-13" x="555.47" y="479.39" width="23.75" height="106.94" rx="10.94" ry="10.94"/>
    </g>
    <g>
      <rect class="cls-13" x="622.25" y="479.39" width="23.75" height="106.94" rx="10.94" ry="10.94"/>
      <rect class="cls-13" x="671.35" y="479.39" width="23.75" height="106.94" rx="10.94" ry="10.94"/>
    </g>
    <g>
      <path class="cls-3" d="M128.84,411.92s131.68-55.9,131.68,103.13,145.34,101.17,145.34,101.17"/>
      <line class="cls-4" x1="129.61" y1="409.8" x2="328.2" y2="409.8"/>
      <ellipse class="cls-13" cx="131.59" cy="411.02" rx="9.26" ry="9.98"/>
      <ellipse class="cls-13" cx="329.09" cy="409.93" rx="5.88" ry="6.34"/>
      <line class="cls-4" x1="406.7" y1="618.47" x2="208.11" y2="618.47"/>
      <ellipse class="cls-13" cx="404.71" cy="617.25" rx="9.26" ry="9.98"/>
      <ellipse class="cls-13" cx="207.21" cy="618.35" rx="5.88" ry="6.34"/>
      <line class="cls-5" x1="100.73" y1="398.75" x2="100.73" y2="667.03"/>
      <line class="cls-5" x1="101.71" y1="667.29" x2="414.18" y2="667.29"/>
    </g>
    <rect class="cls-7" x="255.56" y="103.53" width="202.36" height="202.36" rx="36.32" ry="36.32" transform="translate(-37.56 321.75) rotate(-46.38)"/>
    <g>
      <path class="cls-12" d="M254.59,74.74l36.82,93.87c2,5-2.2,10.27-7.52,9.43l-99.72-14.99c-5.32-.84-7.78-7.08-4.44-11.28l18.61-23.34-39.94-31.85c-4.98-3.97-5.81-11.26-1.83-16.24l11.26-14.13c3.97-4.98,11.23-5.77,16.21-1.8l39.94,31.85,18.61-23.34c3.37-4.23,10.01-3.22,11.98,1.81Z"/>
      <path class="cls-14" d="M250.57,79.07l36.82,93.87c2,5-2.2,10.27-7.52,9.43l-99.72-14.99c-5.32-.84-7.78-7.08-4.44-11.28l18.61-23.34-39.94-31.85c-4.98-3.97-5.81-11.26-1.83-16.24l11.26-14.13c3.97-4.98,11.23-5.77,16.21-1.8l39.94,31.85,18.61-23.34c3.37-4.23,10.01-3.22,11.98,1.81Z"/>
    </g>
    <g>
      <g id="_Répétition_radiale_" data-name="&amp;lt;Répétition radiale&amp;gt;">
        <line class="cls-2" x1="141.35" y1="143.78" x2="91.74" y2="143.24"/>
      </g>
      <g id="_Répétition_radiale_-2" data-name="&amp;lt;Répétition radiale&amp;gt;">
        <line class="cls-2" x1="156.5" y1="189.62" x2="116.04" y2="218.35"/>
      </g>
      <g id="_Répétition_radiale_-3" data-name="&amp;lt;Répétition radiale&amp;gt;">
        <line class="cls-2" x1="195.69" y1="217.81" x2="179.85" y2="264.83"/>
      </g>
    </g>
    <text class="cls-6" transform="translate(528.82 689.87)"><tspan class="cls-9" x="0" y="0">M</tspan><tspan class="cls-8" x="60.95" y="0">o</tspan><tspan class="cls-11" x="97.42" y="0">t</tspan><tspan class="cls-10" x="125.17" y="0">i</tspan><tspan x="142.8" y="0">on</tspan></text>
  </g>
  <g id="Color_Typo" data-name="Color + Typo">
    <text/>
  </g>
</svg>