<?xml version="1.0" encoding="UTF-8"?>
<svg id="Contenue" xmlns="http://www.w3.org/2000/svg" viewBox="0 0 500 500">
  <defs>
    <style>
      .cls-1 {
        fill: #036;
      }

      .cls-2 {
        stroke: #a5c3fb;
        stroke-width: 3.5px;
      }

      .cls-2, .cls-3 {
        stroke-linejoin: round;
      }

      .cls-2, .cls-3, .cls-4, .cls-5 {
        fill: none;
        stroke-linecap: round;
      }

      .cls-3 {
        stroke: #f63;
        stroke-width: 5.69px;
      }

      .cls-6 {
        fill: #92bcff;
      }

      .cls-4 {
        stroke-width: 2.99px;
      }

      .cls-4, .cls-5 {
        stroke: #fffce9;
        stroke-miterlimit: 10;
      }

      .cls-7 {
        fill: #fffce9;
      }

      .cls-5 {
        stroke-width: 4.06px;
      }

      .cls-8 {
        fill: #36c;
      }

      .cls-9 {
        fill: #f63;
      }
    </style>
  </defs>
  <rect class="cls-1" x="15.65" y="104.65" width="468.7" height="302.15" rx="21.26" ry="21.26"/>
  <path class="cls-9" d="M406.53,252.32l-91.71,1.25c-4.62.06-7.85-4.57-6.19-8.88l27.22-43.79c1.29-2.08,1.25-4.72-.11-6.76l-28.34-42.51c-1.8-4.27,1.3-9,5.93-9.07l91.64-1.25c4.63-.06,7.85,4.58,6.18,8.89l-26.84,43.27c-1.28,2.06-1.25,4.67.07,6.7l28.08,43.11c1.77,4.27-1.33,8.98-5.95,9.04Z"/>
  <path class="cls-7" d="M306.81,338.26l-33.32-19.24c-3.62-2.09-8.14.52-8.14,4.7v38.47c0,4.18,4.52,6.79,8.14,4.7l33.32-19.24c3.62-2.09,3.62-7.31,0-9.4Z"/>
  <path class="cls-7" d="M448.43,338.26l-33.32-19.24c-3.62-2.09-8.14.52-8.14,4.7v38.47c0,4.18,4.52,6.79,8.14,4.7l33.32-19.24c3.62-2.09,3.62-7.31,0-9.4Z"/>
  <rect class="cls-7" x="306.47" y="318.44" width="10.88" height="49.02" rx="5.01" ry="5.01"/>
  <rect class="cls-7" x="345.85" y="318.44" width="10.88" height="49.02" rx="5.01" ry="5.01"/>
  <rect class="cls-7" x="368.35" y="318.44" width="10.88" height="49.02" rx="5.01" ry="5.01"/>
  <g>
    <path class="cls-3" d="M67.91,267.8s61.58-24.25,61.58,44.74,67.97,43.89,67.97,43.89"/>
    <line class="cls-4" x1="68.27" y1="266.89" x2="161.14" y2="266.89"/>
    <circle class="cls-7" cx="69.19" cy="267.42" r="4.33"/>
    <circle class="cls-7" cx="161.55" cy="266.94" r="2.75"/>
    <line class="cls-4" x1="197.85" y1="357.41" x2="104.98" y2="357.41"/>
    <circle class="cls-7" cx="196.92" cy="356.88" r="4.33"/>
    <circle class="cls-7" cx="104.56" cy="357.36" r="2.75"/>
    <line class="cls-5" x1="54.76" y1="262.09" x2="54.76" y2="378.48"/>
    <line class="cls-5" x1="55.22" y1="378.59" x2="201.35" y2="378.59"/>
  </g>
  <rect class="cls-9" x="155.58" y="147.05" width="97.15" height="97.15" rx="17.44" ry="17.44" transform="translate(-78.31 208.47) rotate(-46.38)"/>
  <g>
    <path class="cls-6" d="M151.16,126.62l19.74,50.34c1.07,2.68-1.18,5.51-4.03,5.06l-53.47-8.04c-2.85-.45-4.17-3.8-2.38-6.05l9.98-12.52-21.42-17.08c-2.67-2.13-3.11-6.04-.98-8.71l6.04-7.58c2.13-2.67,6.02-3.09,8.69-.96l21.42,17.08,9.98-12.52c1.81-2.27,5.37-1.73,6.43.97Z"/>
    <path class="cls-8" d="M149.01,128.95l19.74,50.34c1.07,2.68-1.18,5.51-4.03,5.06l-53.47-8.04c-2.85-.45-4.17-3.8-2.38-6.05l9.98-12.52-21.42-17.08c-2.67-2.13-3.11-6.04-.98-8.71l6.04-7.58c2.13-2.67,6.02-3.09,8.69-.96l21.42,17.08,9.98-12.52c1.81-2.27,5.37-1.73,6.43.97Z"/>
  </g>
  <g>
    <g id="_Répétition_radiale_" data-name="&amp;lt;Répétition radiale&amp;gt;">
      <line class="cls-2" x1="90.44" y1="163.64" x2="63.84" y2="163.35"/>
    </g>
    <g id="_Répétition_radiale_-2" data-name="&amp;lt;Répétition radiale&amp;gt;">
      <line class="cls-2" x1="98.56" y1="188.22" x2="76.87" y2="203.63"/>
    </g>
    <g id="_Répétition_radiale_-3" data-name="&amp;lt;Répétition radiale&amp;gt;">
      <line class="cls-2" x1="119.58" y1="203.34" x2="111.09" y2="228.55"/>
    </g>
  </g>
</svg>