<?xml version="1.0" encoding="UTF-8"?>
<svg id="Contenue" xmlns="http://www.w3.org/2000/svg" viewBox="0 0 500 500">
  <defs>
    <style>
      .cls-1 {
        fill: #036;
      }

      .cls-2 {
        stroke: #a5c3fb;
        stroke-width: 3.47px;
      }

      .cls-2, .cls-3 {
        stroke-linejoin: round;
      }

      .cls-2, .cls-3, .cls-4, .cls-5 {
        fill: none;
        stroke-linecap: round;
      }

      .cls-3 {
        stroke: #f63;
        stroke-width: 6.71px;
      }

      .cls-6 {
        fill: #92bcff;
      }

      .cls-4 {
        stroke-width: 3.52px;
      }

      .cls-4, .cls-5 {
        stroke: #fffce9;
        stroke-miterlimit: 10;
      }

      .cls-5 {
        stroke-width: 4.79px;
      }

      .cls-7 {
        fill: #fffce9;
      }

      .cls-8 {
        fill: #36c;
      }

      .cls-9 {
        fill: #f63;
      }
    </style>
  </defs>
  <rect class="cls-1" x="30.91" y="59.32" width="438.18" height="381.36" rx="23.1" ry="23.1"/>
  <path class="cls-9" d="M380.09,226l-101.43,1.38c-5.12.07-8.68-5.05-6.84-9.83l30.11-48.43c1.43-2.3,1.38-5.22-.12-7.48l-31.35-47.02c-1.99-4.72,1.44-9.96,6.56-10.03l101.35-1.38c5.12-.07,8.69,5.06,6.84,9.84l-29.69,47.86c-1.41,2.28-1.38,5.17.08,7.41l31.06,47.68c1.96,4.72-1.47,9.93-6.58,10Z"/>
  <path class="cls-7" d="M441.23,331.26l-38.6-22.29c-4.19-2.42-9.43.6-9.43,5.44v44.58c0,4.84,5.24,7.86,9.43,5.44l38.6-22.29c4.19-2.42,4.19-8.47,0-10.89Z"/>
  <g>
    <path class="cls-7" d="M298.32,332.1l-38.6-22.29c-4.19-2.42-9.43.6-9.43,5.44v44.58c0,4.84,5.24,7.86,9.43,5.44l38.6-22.29c4.19-2.42,4.19-8.47,0-10.89Z"/>
    <rect class="cls-7" x="297.93" y="309.15" width="12.61" height="56.79" rx="5.81" ry="5.81"/>
  </g>
  <g>
    <rect class="cls-7" x="333.39" y="309.15" width="12.61" height="56.79" rx="5.81" ry="5.81"/>
    <rect class="cls-7" x="359.46" y="309.15" width="12.61" height="56.79" rx="5.81" ry="5.81"/>
  </g>
  <g>
    <path class="cls-3" d="M71.38,273.32s69.92-29.69,69.92,54.76,77.17,53.72,77.17,53.72"/>
    <line class="cls-4" x1="71.79" y1="272.19" x2="177.24" y2="272.19"/>
    <ellipse class="cls-7" cx="72.84" cy="272.85" rx="4.92" ry="5.3"/>
    <ellipse class="cls-7" cx="177.72" cy="272.26" rx="3.12" ry="3.37"/>
    <line class="cls-4" x1="218.93" y1="383" x2="113.47" y2="383"/>
    <ellipse class="cls-7" cx="217.87" cy="382.35" rx="4.92" ry="5.3"/>
    <ellipse class="cls-7" cx="113" cy="382.94" rx="3.12" ry="3.37"/>
    <line class="cls-5" x1="56.46" y1="266.33" x2="56.46" y2="408.79"/>
    <line class="cls-5" x1="56.98" y1="408.93" x2="222.9" y2="408.93"/>
  </g>
  <rect class="cls-9" x="138.67" y="109.56" width="107.46" height="107.46" rx="19.29" ry="19.29" transform="translate(-58.54 189.93) rotate(-46.38)"/>
  <g>
    <path class="cls-6" d="M138.16,94.28l19.55,49.85c1.06,2.65-1.17,5.45-3.99,5.01l-52.95-7.96c-2.82-.44-4.13-3.76-2.36-5.99l9.88-12.39-21.21-16.91c-2.65-2.11-3.08-5.98-.97-8.62l5.98-7.5c2.11-2.65,5.96-3.06,8.61-.95l21.21,16.91,9.88-12.39c1.79-2.25,5.32-1.71,6.36.96Z"/>
    <path class="cls-8" d="M136.02,96.58l19.55,49.85c1.06,2.65-1.17,5.45-3.99,5.01l-52.95-7.96c-2.82-.44-4.13-3.76-2.36-5.99l9.88-12.39-21.21-16.91c-2.65-2.11-3.08-5.98-.97-8.62l5.98-7.5c2.11-2.65,5.96-3.06,8.61-.95l21.21,16.91,9.88-12.39c1.79-2.25,5.32-1.71,6.36.96Z"/>
  </g>
  <g>
    <g id="_Répétition_radiale_" data-name="&amp;lt;Répétition radiale&amp;gt;">
      <line class="cls-2" x1="78.03" y1="130.94" x2="51.68" y2="130.65"/>
    </g>
    <g id="_Répétition_radiale_-2" data-name="&amp;lt;Répétition radiale&amp;gt;">
      <line class="cls-2" x1="86.07" y1="155.28" x2="64.59" y2="170.53"/>
    </g>
    <g id="_Répétition_radiale_-3" data-name="&amp;lt;Répétition radiale&amp;gt;">
      <line class="cls-2" x1="106.88" y1="170.25" x2="98.47" y2="195.21"/>
    </g>
  </g>
</svg>