<?xml version="1.0" encoding="UTF-8"?>
<svg id="Calque_1" data-name="Calque 1" xmlns="http://www.w3.org/2000/svg" viewBox="0 0 250 250">
  <defs>
    <style>
      .cls-1 {
        fill: none;
        stroke: #36c;
        stroke-linecap: round;
        stroke-miterlimit: 10;
        stroke-width: 3.96px;
      }

      .cls-2 {
        fill: #36c;
      }

      .cls-3 {
        fill: #f63;
      }
    </style>
  </defs>
  <path class="cls-2" d="M194.37,62.83c-8.11-9.43-17.8-16.85-29.08-22.28-6.89-3.31-14.21-5.58-21.95-6.87-1.83-.3-3.49,1.12-3.49,2.97v76.66c0,1.66,1.34,3,3,3h72.01c1.89,0,3.3-1.72,2.95-3.57-1.1-5.78-2.61-11.4-4.55-16.85-4.49-12.61-10.79-23.63-18.89-33.06Z"/>
  <path class="cls-2" d="M194.37,187.17c-8.11,9.43-17.8,16.85-29.08,22.28-6.89,3.31-14.21,5.58-21.95,6.87-1.83.3-3.49-1.12-3.49-2.97v-76.66c0-1.66,1.34-3,3-3h72.01c1.89,0,3.3,1.72,2.95,3.57-1.1,5.78-2.61,11.4-4.55,16.85-4.49,12.61-10.79,23.63-18.89,33.06Z"/>
  <path class="cls-3" d="M118.88,36.59c0-1.83-1.63-3.23-3.45-2.97-7.69,1.1-14.97,3.04-21.83,5.86-11.31,4.64-21.11,11.06-29.41,19.27-8.29,8.2-14.75,17.99-19.35,29.34-4.61,11.36-6.91,23.66-6.91,36.92s2.3,25.57,6.91,36.92c4.61,11.36,11.06,21.13,19.35,29.34,8.29,8.2,18.1,14.63,29.41,19.27,6.86,2.81,14.14,4.75,21.83,5.86,1.81.26,3.45-1.14,3.45-2.97V36.59Z"/>
  <path class="cls-1" d="M116.86,15.89c-10.43,1.17-20.24,3.64-29.4,7.48-13.16,5.52-24.56,13.15-34.21,22.9s-17.16,21.37-22.51,34.86c-5.36,13.49-8.04,28.12-8.04,43.87s2.68,30.38,8.04,43.87c5.36,13.49,12.87,25.11,22.51,34.86,9.65,9.75,21.05,17.38,34.21,22.9,9.16,3.84,18.97,6.31,29.4,7.48"/>
</svg>