<?xml version="1.0" encoding="UTF-8"?>
<svg id="Contenue" xmlns="http://www.w3.org/2000/svg" viewBox="0 0 500 500">
  <defs>
    <style>
      .cls-1 {
        fill: #036;
      }

      .cls-2, .cls-3, .cls-4 {
        fill: none;
        stroke-linecap: round;
        stroke-miterlimit: 10;
      }

      .cls-2, .cls-4 {
        stroke: #f63;
        stroke-width: 2.33px;
      }

      .cls-3 {
        stroke: #36c;
        stroke-width: 2.45px;
      }

      .cls-4 {
        stroke-dasharray: 6.96 6.96;
      }

      .cls-5, .cls-6 {
        fill: #fffce9;
      }

      .cls-7 {
        fill: #36c;
      }

      .cls-6 {
        font-family: ShantellSansInformalBouncy-Medium, 'Shantell Sans Informal Bouncy';
        font-size: 76.74px;
        font-weight: 500;
      }

      .cls-8 {
        fill: #f63;
      }
    </style>
  </defs>
  <rect class="cls-1" x="15.65" y="98.92" width="468.7" height="302.15" rx="21.26" ry="21.26"/>
  <g>
    <text class="cls-6" transform="translate(79.39 208.53)"><tspan x="0" y="0">T</tspan></text>
    <g>
      <polyline class="cls-2" points="152.56 224.79 152.56 228.28 149.07 228.28"/>
      <line class="cls-4" x1="142.12" y1="228.28" x2="62.1" y2="228.28"/>
      <polyline class="cls-2" points="58.62 228.28 55.14 228.28 55.14 224.79"/>
      <line class="cls-4" x1="55.14" y1="217.84" x2="55.14" y2="137.82"/>
      <polyline class="cls-2" points="55.14 134.34 55.14 130.86 58.62 130.86"/>
      <line class="cls-4" x1="65.58" y1="130.86" x2="145.59" y2="130.86"/>
      <polyline class="cls-2" points="149.07 130.86 152.56 130.86 152.56 134.34"/>
      <line class="cls-4" x1="152.56" y1="141.3" x2="152.56" y2="221.31"/>
    </g>
    <rect class="cls-8" x="53.45" y="128.85" width="7.55" height="7.55"/>
    <rect class="cls-8" x="53.45" y="223.23" width="7.55" height="7.55"/>
    <rect class="cls-8" x="147.33" y="223.23" width="7.55" height="7.55"/>
    <rect class="cls-8" x="147.33" y="128.85" width="7.55" height="7.55"/>
  </g>
  <circle class="cls-8" cx="77.65" cy="336.5" r="33.35"/>
  <circle class="cls-5" cx="107.2" cy="290.1" r="33.35"/>
  <circle class="cls-7" cx="135.81" cy="336.5" r="33.35"/>
  <g>
    <path class="cls-7" d="M290.43,182.18l144.15,153.61c7.93,8.49,6.94,22.26-2.48,30.43-9.43,8.17-23.19,7.2-30.48-1.86l-135.66-162.82c-1.5-1.86,1.83-5.44,4.65-7.88l11.78-10.21c2.82-2.44,6.42-3.02,8.05-1.27Z"/>
    <path class="cls-8" d="M278.07,196.4c-13.92,9.78-33.27,6.27-43.23-7.82-2.64-3.73-6.05-9.71-9.59-16.47-9.83-18.75-20.64-43.48-18.41-42.71,12.72,4.44,22.88,7.17,31.18,8.97,27.89,6.06,34.74,1.53,47.22,14.84,11.8,12.57,6.74,33.43-7.17,43.2Z"/>
    <path class="cls-5" d="M238.02,138.37c3.34,7.5-3.74,6.76-10.76,12.25-2.12,1.66,3.24,9.14,5.5,17.27s-4.79,3.35-7.52,4.23c-9.83-18.75-20.64-43.48-18.41-42.71,12.72,4.44,22.88,7.17,31.18,8.97Z"/>
  </g>
  <g>
    <path class="cls-5" d="M226.72,320.93h58.6v22.17c0,10.31-8.37,18.68-18.68,18.68h-21.25c-10.31,0-18.68-8.37-18.68-18.68v-22.17h0Z" transform="translate(292.94 -83.74) rotate(41.83)"/>
    <rect class="cls-8" x="312.3" y="135.8" width="58.6" height="219.93" transform="translate(250.99 -165.19) rotate(41.83)"/>
    <path class="cls-5" d="M436.79,183.46l-9.64,1.67c-1.38.25-2.66-.74-2.78-2.13l-.85-9.48c-.1-1.23-1.13-2.18-2.36-2.2l-10.36-.15c-1.18-.02-2.17-.9-2.31-2.09l-1.27-10.32c-.14-1.15-1.09-2.04-2.26-2.11l-10.56-.59c-1.35-.07-2.36-1.26-2.23-2.6l.93-9.2,32.7-7.83,13.87-3.35c2.57-.69,5.04,1.44,4.74,4.1l-2.34,14.1-5.26,32.17Z"/>
    <path class="cls-7" d="M442.14,151.29c-3.87-.09-7.72-1.5-10.81-4.26-3.18-2.84-5.01-6.64-5.46-10.58l13.87-3.35c2.57-.69,5.04,1.44,4.74,4.1l-2.34,14.1Z"/>
    <line class="cls-3" x1="378.67" y1="177.54" x2="268.57" y2="300.54"/>
    <line class="cls-3" x1="392.33" y1="189.77" x2="282.23" y2="312.77"/>
    <line class="cls-3" x1="405.83" y1="201.86" x2="295.73" y2="324.86"/>
  </g>
</svg>