<?xml version="1.0" encoding="UTF-8"?>
<svg id="Contenue" xmlns="http://www.w3.org/2000/svg" viewBox="0 0 500 500">
  <defs>
    <style>
      .cls-1 {
        fill: #036;
      }

      .cls-2 {
        stroke-dasharray: 9.05 9.05;
      }

      .cls-2, .cls-3, .cls-4 {
        fill: none;
        stroke-linecap: round;
        stroke-miterlimit: 10;
      }

      .cls-2, .cls-4 {
        stroke: #f63;
        stroke-width: 3.04px;
      }

      .cls-5 {
        font-family: ShantellSansInformalBouncy-Medium, 'Shantell Sans Informal Bouncy';
        font-size: 99.83px;
        font-weight: 500;
      }

      .cls-5, .cls-6 {
        fill: #fffce9;
      }

      .cls-3 {
        stroke: #36c;
        stroke-width: 2.71px;
      }

      .cls-7 {
        fill: #36c;
      }

      .cls-8 {
        fill: #f63;
      }
    </style>
  </defs>
  <rect class="cls-1" x="31.19" y="59.32" width="438.18" height="381.36" rx="23.1" ry="23.1"/>
  <g>
    <text class="cls-5" transform="translate(100.67 202)"><tspan x="0" y="0">T</tspan></text>
    <g>
      <polyline class="cls-4" points="195.85 223.16 195.85 227.69 191.32 227.69"/>
      <line class="cls-2" x1="182.27" y1="227.69" x2="78.19" y2="227.69"/>
      <polyline class="cls-4" points="73.66 227.69 69.13 227.69 69.13 223.16"/>
      <line class="cls-2" x1="69.13" y1="214.11" x2="69.13" y2="110.03"/>
      <polyline class="cls-4" points="69.13 105.5 69.13 100.97 73.66 100.97"/>
      <line class="cls-2" x1="82.71" y1="100.97" x2="186.8" y2="100.97"/>
      <polyline class="cls-4" points="191.32 100.97 195.85 100.97 195.85 105.5"/>
      <line class="cls-2" x1="195.85" y1="114.55" x2="195.85" y2="218.63"/>
    </g>
    <rect class="cls-8" x="66.94" y="98.36" width="9.83" height="9.83"/>
    <rect class="cls-8" x="66.94" y="221.13" width="9.83" height="9.83"/>
    <rect class="cls-8" x="189.05" y="221.13" width="9.83" height="9.83"/>
    <rect class="cls-8" x="189.05" y="98.36" width="9.83" height="9.83"/>
  </g>
  <circle class="cls-8" cx="98.41" cy="368.48" r="43.38"/>
  <circle class="cls-6" cx="136.85" cy="308.12" r="43.38"/>
  <circle class="cls-7" cx="174.07" cy="368.48" r="43.38"/>
  <g>
    <path class="cls-7" d="M321.65,165.94l113.9,203.54c6.25,11.24,1.52,25.77-10.79,32.04-12.31,6.27-26.84,1.54-32.25-10.13l-102.32-211.17c-1.11-2.4,3.42-5.35,7.1-7.23l15.38-7.83c3.68-1.87,7.7-1.54,8.99.78Z"/>
    <path class="cls-8" d="M304.57,177.93c-17.56,6.79-37.43-2.14-44.37-19.94-1.84-4.71-3.91-12.05-5.91-20.26-5.56-22.77-10.57-52.23-8.38-50.81,12.49,8.16,22.67,13.81,31.11,17.96,28.35,13.96,36.92,10.92,46.79,28.55,9.33,16.66-1.68,37.72-19.23,44.5Z"/>
    <path class="cls-6" d="M277.02,104.87c1.59,8.95-5.83,6.26-14.83,10.3-2.73,1.22,1.04,10.69,1.3,20.02.26,9.33-6.04,2.32-9.2,2.54-5.56-22.77-10.57-52.23-8.38-50.81,12.49,8.16,22.67,13.81,31.11,17.96Z"/>
  </g>
  <g>
    <path class="cls-6" d="M255.98,352.07h64.89v24.55c0,11.41-9.27,20.68-20.68,20.68h-23.53c-11.41,0-20.68-9.27-20.68-20.68v-24.55h0Z" transform="translate(210.93 -91.76) rotate(28.16)"/>
    <rect class="cls-8" x="323.02" y="127.68" width="64.89" height="243.52" transform="translate(159.76 -138.21) rotate(28.16)"/>
    <path class="cls-6" d="M441.56,157.49l-9.93,4.33c-1.41.63-3.06-.1-3.55-1.56l-3.4-9.98c-.43-1.29-1.78-2.05-3.11-1.74l-11.19,2.56c-1.28.29-2.57-.41-3.03-1.64l-4.07-10.77c-.45-1.2-1.7-1.91-2.98-1.67l-11.52,2.13c-1.47.27-2.87-.74-3.08-2.22l-1.41-10.14,33.12-16.98,14.04-7.23c2.59-1.42,5.8.23,6.17,3.16l1.18,15.78,2.77,35.99Z"/>
    <path class="cls-7" d="M438.89,121.48c-4.18.92-8.7.41-12.74-1.76-4.16-2.23-7.13-5.83-8.65-9.95l14.04-7.23c2.59-1.42,5.8.23,6.17,3.16l1.18,15.78Z"/>
    <line class="cls-3" x1="377.48" y1="166.34" x2="291.23" y2="327.49"/>
    <line class="cls-3" x1="395.38" y1="175.92" x2="309.13" y2="337.07"/>
    <line class="cls-3" x1="413.07" y1="185.38" x2="326.82" y2="346.54"/>
  </g>
</svg>