<?xml version="1.0" encoding="UTF-8"?>
<svg id="Contenue" xmlns="http://www.w3.org/2000/svg" viewBox="0 0 500 500">
  <defs>
    <style>
      .cls-1 {
        fill: #036;
      }

      .cls-2 {
        stroke: #a5c3fb;
        stroke-width: 3.47px;
      }

      .cls-2, .cls-3 {
        stroke-linejoin: round;
      }

      .cls-2, .cls-3, .cls-4 {
        fill: none;
        stroke-linecap: round;
      }

      .cls-3 {
        stroke: #fffce9;
        stroke-width: 4.27px;
      }

      .cls-5, .cls-6, .cls-7 {
        fill: #fffce9;
      }

      .cls-5, .cls-8 {
        font-family: ShantellSansInformalBouncy-Medium, 'Shantell Sans Informal Bouncy';
        font-size: 50.02px;
        font-weight: 500;
      }

      .cls-6 {
        font-family: Ingra-Regular, Ingra;
        font-size: 37.75px;
      }

      .cls-8, .cls-9 {
        fill: #f63;
      }

      .cls-10 {
        letter-spacing: -.03em;
      }

      .cls-11 {
        fill: #92bcff;
      }

      .cls-4 {
        stroke: #f63;
        stroke-miterlimit: 10;
        stroke-width: 5px;
      }

      .cls-12 {
        letter-spacing: .09em;
      }

      .cls-13 {
        fill: #36c;
      }
    </style>
  </defs>
  <rect class="cls-1" x="32.04" y="59.32" width="438.18" height="381.36" rx="23.1" ry="23.1" transform="translate(-.72 .72) rotate(-.16)"/>
  <text class="cls-6" transform="translate(83.18 151.69) rotate(-.16)"><tspan x="0" y="0">ww</tspan><tspan class="cls-10" x="56.32" y="0">w</tspan><tspan x="83.34" y="0">.</tspan></text>
  <text class="cls-8" transform="translate(54.43 232.49)"><tspan x="0" y="0">&lt;/&gt;</tspan></text>
  <line class="cls-4" x1="89.02" y1="263.01" x2="221.54" y2="263.01"/>
  <line class="cls-4" x1="89.02" y1="283.33" x2="259.96" y2="283.33"/>
  <line class="cls-4" x1="89.02" y1="303.66" x2="177.36" y2="303.66"/>
  <line class="cls-4" x1="89.02" y1="364.63" x2="221.54" y2="364.63"/>
  <line class="cls-4" x1="89.02" y1="384.95" x2="171.66" y2="384.95"/>
  <line class="cls-4" x1="89.02" y1="323.98" x2="144.34" y2="323.98"/>
  <line class="cls-4" x1="89.02" y1="344.31" x2="249.48" y2="344.31"/>
  <text class="cls-5" transform="translate(377.54 271.46)"><tspan class="cls-12" x="0" y="0">{</tspan><tspan x="30.92" y="0">}</tspan></text>
  <g>
    <rect class="cls-9" x="315.32" y="307.01" width="93.27" height="93.27" rx="10.25" ry="10.25"/>
    <path class="cls-13" d="M408.59,379.94v10.09c0,5.64-4.61,10.25-10.25,10.25h-72.78c-5.64,0-10.25-4.61-10.25-10.25v-1.54l17.95-30.26c3.53-5.95,12.02-6.33,16.06-.73l13.36,18.5,20.48-52.68c1.08-2.77,5.01-2.69,5.97.11l19.44,56.5Z"/>
    <circle class="cls-13" cx="340.65" cy="328.22" r="7.91"/>
  </g>
  <path class="cls-3" d="M353.88,163.38h72.86c4.46,0,8.11-3.72,8.11-8.28v-26.26c0-4.55-3.65-8.28-8.11-8.28H78.17c-4.46,0-8.11,3.72-8.11,8.28v26.26c0,4.55,3.65,8.28,8.11,8.28h174.01"/>
  <g>
    <path class="cls-11" d="M306.78,219.99l-42.97-56.79c-2.31-3.01-.46-7.4,3.31-7.85l70.66-8.85c3.77-.45,6.64,3.33,5.17,6.82l-8.2,19.43,33.24,14.03c4.15,1.75,6.1,6.54,4.35,10.69l-4.96,11.76c-1.75,4.15-6.53,6.07-10.68,4.32l-33.24-14.03-8.2,19.43c-1.49,3.52-6.19,4.1-8.5,1.06Z"/>
    <path class="cls-13" d="M308.69,216.28l-42.97-56.79c-2.31-3.01-.46-7.4,3.31-7.85l70.66-8.85c3.77-.45,6.64,3.33,5.17,6.82l-8.2,19.43,33.24,14.03c4.15,1.75,6.1,6.54,4.35,10.69l-4.96,11.76c-1.75,4.15-6.53,6.07-10.68,4.32l-33.24-14.03-8.2,19.43c-1.49,3.52-6.19,4.1-8.5,1.06Z"/>
    <g>
      <g id="_Répétition_radiale_" data-name="&amp;lt;Répétition radiale&amp;gt;">
        <line class="cls-2" x1="326.02" y1="229.7" x2="336.11" y2="254.05"/>
      </g>
      <g id="_Répétition_radiale_-2" data-name="&amp;lt;Répétition radiale&amp;gt;">
        <line class="cls-2" x1="300.42" y1="231.31" x2="294.27" y2="256.95"/>
      </g>
      <g id="_Répétition_radiale_-3" data-name="&amp;lt;Répétition radiale&amp;gt;">
        <line class="cls-2" x1="278.76" y1="217.57" x2="258.71" y2="234.7"/>
      </g>
    </g>
  </g>
  <circle class="cls-9" cx="66.58" cy="89.07" r="11.29"/>
  <circle class="cls-7" cx="101.91" cy="89.07" r="11.29"/>
  <circle class="cls-13" cx="137.24" cy="89.07" r="11.29"/>
</svg>